_________________________  Visit us at _________________________
  
http://p2pdl.com  ____________________________  http://p2pdl.com


Cloud Atlas 2012 BRRip 720p x264 AAC - PRiSTiNE


Genre: Drama | Mystery | Sci-Fi
Plot: An exploration of how the actions of individual lives impact one another in the past, present
and future, as one soul is shaped from a killer into a hero, and an act of kindness ripples across
centuries to inspire a revolution.
Director: Tom Tykwer, Andy Wachowski & Lana Wachowski.
Stars: Tom Hanks, Halle Berry, Hugh Grant.
Rated: R for violence, language, sexuality/nudity and some drug use.


Info: 
http://www.imdb.com/title/tt1371111/

Trailer:


Format                         : MPEG-4
File size                      : 969 MiB
Duration                       : 2h 52mn
Overall bit rate               : 787 Kbps
Video Format                   : AVC
Bit rate                       : 700 Kbps
Width                          : 1 280 pixels
Height                         : 544 pixels
Display aspect ratio           : 2.35:1
Frame rate mode                : Constant
Frame rate                     : 23.976 fps
Stream size                    : 862 MiB (89%)
Writing library                : x264 core 129 r2245
Audio Format                   : AAC
Audio Bit rate                 : 84.0 Kbps
Channel(s)                     : 2 channels
Channel positions              : Front: L R
Sampling rate                  : 48.0 KHz
Stream size                    : 103 MiB (11%)
Language                       : English
Subtitle                       : Yes(English)
Source                         : 1080p.CEE.Bluray.AVC.DTS-HD.MA.5.1.-CSB(Thanks)

Screenshots:
 
http://cdn.piczend.com/images/RkL8kiQU/1363496249_1.jpg 
http://cdn.piczend.com/images/im03MOEv/1363496254_2.jpg 
http://cdn.piczend.com/images/gqasZI26/1363496248_3.jpg 
http://cdn.piczend.com/images/ms8Ph3YH/1363496249_4.jpg 
http://cdn.piczend.com/images/NNjeFd60/1363496248_5.jpg 
http://cdn.piczend.com/images/HdbfNsRB/1363496248_6.jpg


----------------------------------------------------------------------------------------------------


Encoded using revolutionary 10bit encoding, which enables us to provide you more crispier 
and sharper images at small sizes, just make sure you follow our instructions without a fault.
Recommend to you to use latest version of VLC player. Install K-Lite Codec Pack or shark007 codecs
in case of any kind of problem in playback (For non-VLC Media Player users). Alternatively, install
Core AVC codecs, the fastest decoder that there is coupled with Community Center Codec Pack and play
on Windows Media Player Classic.


Encoder Notes: Encoder Notes: Looking For Early Access To Anything You Can Provide DVDScr, R5, DVDR, BluRay, Direct
Audio, Music Releases and Seedboxes. We require dedicated servers, so as to do more and fast releases of movies.
If You Got anything to offer contact us at "prg@hush.com".